<?xml version="1.0" encoding="utf-8"?>
<!-- Generator: Adobe Illustrator 20.0.0, SVG Export Plug-In . SVG Version: 6.00 Build 0)  -->
<svg version="1.1" id="Layer_1" xmlns="http://www.w3.org/2000/svg" xmlns:xlink="http://www.w3.org/1999/xlink" x="0px" y="0px"
	 viewBox="0 0 24 24" style="enable-background:new 0 0 24 24;" xml:space="preserve">
<style type="text/css">
	.st0{fill:none;}
	.st1{fill:#5A5A5A;}
</style>
<path class="st0" d="M0,0h24v24H0V0z"/>
<path class="st1" d="M4,6h18V4H4C2.9,4,2,4.9,2,6v11H0v3h14v-3H4V6z M23,8h-6c-0.5,0-1,0.4-1,1v10c0,0.5,0.5,1,1,1h6
	c0.5,0,1-0.5,1-1V9C24,8.4,23.5,8,23,8z M22,17h-4v-7h4V17z"/>
</svg>
