<?xml version="1.0" encoding="utf-8"?>
<!-- Generator: Adobe Illustrator 20.0.0, SVG Export Plug-In . SVG Version: 6.00 Build 0)  -->
<svg version="1.1" id="Layer_1" xmlns="http://www.w3.org/2000/svg" xmlns:xlink="http://www.w3.org/1999/xlink" x="0px" y="0px"
	 viewBox="0 0 24 24" style="enable-background:new 0 0 24 24;" xml:space="preserve">
<style type="text/css">
	.st0{fill:#5A5A5A;}
</style>
<path class="st0" d="M4.8,0h14.4c1.3,0,2.4,1.1,2.4,2.4v19.2c0,1.3-1.1,2.4-2.4,2.4H4.8c-1.3,0-2.4-1.1-2.4-2.4V2.4
	C2.4,1.1,3.5,0,4.8,0 M12,2.4c-4,0-7.2,3.2-7.2,7.2c0,4,3.2,7.2,7.3,7.2l-1.1-2.7c-0.3-0.6-0.1-1.3,0.4-1.6l1-0.6
	c0.6-0.3,1.3-0.1,1.6,0.4l2.3,2.9c1.7-1.3,2.7-3.3,2.7-5.6C19.2,5.6,16,2.4,12,2.4 M12,8.4c0.7,0,1.2,0.5,1.2,1.2
	c0,0.7-0.5,1.2-1.2,1.2s-1.2-0.5-1.2-1.2C10.8,8.9,11.3,8.4,12,8.4 M6,19.2c-0.7,0-1.2,0.5-1.2,1.2s0.5,1.2,1.2,1.2s1.2-0.5,1.2-1.2
	S6.7,19.2,6,19.2 M12.1,13.5l3,7.6l3.1-1.8l-5.1-6.4L12.1,13.5z"/>
</svg>
