<?xml version="1.0" encoding="utf-8"?>
<!-- Generator: Adobe Illustrator 20.0.0, SVG Export Plug-In . SVG Version: 6.00 Build 0)  -->
<svg version="1.1" id="Layer_1" xmlns="http://www.w3.org/2000/svg" xmlns:xlink="http://www.w3.org/1999/xlink" x="0px" y="0px"
	 viewBox="0 0 24 24" style="enable-background:new 0 0 24 24;" xml:space="preserve">
<style type="text/css">
	.st0{fill:#4588E0;}
</style>
<path class="st0" d="M21.3,0C22.8,0,24,1.2,24,2.7v18.7c0,1.5-1.2,2.7-2.7,2.7H2.7C1.2,24,0,22.8,0,21.3V2.7C0,1.2,1.2,0,2.7,0H21.3
	 M18.3,8.5c0.3-0.3,0.3-0.7,0-1l-1.7-1.7c-0.3-0.3-0.7-0.3-1,0l-1.3,1.3l2.7,2.7L18.3,8.5 M5.3,15.9v2.7h2.7l8.1-8.1l-2.7-2.7
	L5.3,15.9z"/>
</svg>
