<?xml version="1.0" encoding="utf-8"?>
<!-- Generator: Adobe Illustrator 20.0.0, SVG Export Plug-In . SVG Version: 6.00 Build 0)  -->
<svg version="1.1" id="Layer_1" xmlns="http://www.w3.org/2000/svg" xmlns:xlink="http://www.w3.org/1999/xlink" x="0px" y="0px"
	 viewBox="0 0 24 24" style="enable-background:new 0 0 24 24;" xml:space="preserve">
<style type="text/css">
	.st0{fill:#78909C;}
</style>
<path class="st0" d="M19,12c0,0.3,0,0.6-0.1,0.9l2,1.5c0.2,0.1,0.2,0.4,0.1,0.6l-1.9,3.2c-0.1,0.2-0.4,0.3-0.6,0.2l-2.3-0.9
	c-0.5,0.4-1,0.7-1.6,0.9l-0.3,2.5c0,0.2-0.2,0.4-0.5,0.4h-3.7c-0.2,0-0.4-0.2-0.5-0.4l-0.3-2.5c-0.6-0.2-1.1-0.5-1.6-0.9l-2.3,0.9
	c-0.2,0.1-0.5,0-0.6-0.2L3,15.1c-0.1-0.2-0.1-0.5,0.1-0.6l2-1.5C5,12.6,5,12.3,5,12s0-0.6,0.1-0.9l-2-1.5C2.9,9.4,2.9,9.1,3,8.9
	l1.9-3.2C5,5.5,5.2,5.4,5.4,5.5l2.3,0.9c0.5-0.4,1-0.7,1.6-0.9L9.6,3c0-0.2,0.2-0.4,0.5-0.4h3.7c0.2,0,0.4,0.2,0.5,0.4l0.3,2.5
	c0.6,0.2,1.1,0.5,1.6,0.9l2.3-0.9c0.2-0.1,0.5,0,0.6,0.2L21,8.9c0.1,0.2,0.1,0.5-0.1,0.6l-2,1.5C19,11.4,19,11.7,19,12 M21.3,0H2.7
	C1.2,0,0,1.2,0,2.7v18.7C0,22.8,1.2,24,2.7,24h18.7c1.5,0,2.7-1.2,2.7-2.7V2.7C24,1.2,22.8,0,21.3,0 M12,9.3c-1.5,0-2.7,1.2-2.7,2.7
	s1.2,2.7,2.7,2.7s2.7-1.2,2.7-2.7S13.5,9.3,12,9.3z"/>
</svg>
