<?xml version="1.0" encoding="utf-8"?>
<!-- Generator: Adobe Illustrator 20.0.0, SVG Export Plug-In . SVG Version: 6.00 Build 0)  -->
<svg version="1.1" id="Layer_1" xmlns="http://www.w3.org/2000/svg" xmlns:xlink="http://www.w3.org/1999/xlink" x="0px" y="0px"
	 viewBox="0 0 24 24" style="enable-background:new 0 0 24 24;" xml:space="preserve">
<style type="text/css">
	.st0{fill:#DF423C;}
</style>
<path class="st0" d="M4,18.7c0-2.7,5.3-4.1,8-4.1s8,1.5,8,4.1V20H4 M16,8c0,2.2-1.8,4-4,4s-4-1.8-4-4s1.8-4,4-4S16,5.8,16,8 M0,2.7
	v18.7C0,22.8,1.2,24,2.7,24h18.7c1.5,0,2.7-1.2,2.7-2.7V2.7C24,1.2,22.8,0,21.3,0H2.7C1.2,0,0,1.2,0,2.7z"/>
</svg>
