<?xml version="1.0" encoding="utf-8"?>
<!-- Generator: Adobe Illustrator 20.0.0, SVG Export Plug-In . SVG Version: 6.00 Build 0)  -->
<svg version="1.1" id="Layer_1" xmlns="http://www.w3.org/2000/svg" xmlns:xlink="http://www.w3.org/1999/xlink" x="0px" y="0px"
	 viewBox="0 0 24 24" style="enable-background:new 0 0 24 24;" xml:space="preserve">
<style type="text/css">
	.st0{fill:#F44336;}
</style>
<path class="st0" d="M11.2,10.6c-0.3,1-0.7,2-1.3,3.2c-0.3,0.5-0.6,1-0.7,1.4l0.1-0.1l0,0c1.7-0.7,3.3-1,4.5-1.2
	c-0.2-0.1-0.4-0.3-0.5-0.4C12.5,12.8,11.8,11.8,11.2,10.6 M19.9,15.7c-0.2,0.3-0.6,0.4-1.2,0.4c-1,0-2.7-0.3-4-1
	c-2.3,0.3-4,0.6-5.4,1c-0.1,0-0.1,0.1-0.2,0.1c-1.7,2.8-2.9,4.1-4,4.1c-0.2,0-0.4-0.1-0.6-0.1l-0.6-0.4l0-0.1
	c-0.1-0.2-0.1-0.5-0.1-0.7c0.1-0.7,0.9-1.8,2.5-2.8c0.3-0.2,0.7-0.4,1.2-0.7c0.4-0.7,0.8-1.5,1.3-2.4c0.7-1.4,1.1-2.7,1.4-3.9v0
	C9.7,7.5,9.4,6.5,9.9,4.8c0.1-0.5,0.6-1,1.1-1h0.3c0.3,0,0.6,0.1,0.8,0.3c0.9,0.9,0.5,3,0,4.8c0,0.1,0,0.1-0.1,0.2
	c0.5,1.5,1.3,2.7,2.1,3.4c0.3,0.3,0.7,0.5,1.2,0.8c0.6-0.1,1.2-0.1,1.7-0.1c1.7,0,2.7,0.3,3,0.9c0.1,0.2,0.2,0.5,0.2,0.7
	C20.2,15.1,20.1,15.4,19.9,15.7 M21.3,0H2.7C1.2,0,0,1.2,0,2.7v18.7C0,22.8,1.2,24,2.7,24h18.7c1.5,0,2.7-1.2,2.7-2.7V2.7
	C24,1.2,22.8,0,21.3,0 M19.3,14.7c-0.1-0.1-0.7-0.5-2.5-0.5c-0.1,0-0.2,0-0.3,0.1c1,0.4,1.9,0.7,2.5,0.7c0.1,0,0.2,0,0.3,0h0.1
	c0.1,0,0.1,0,0.1-0.2C19.4,14.8,19.4,14.8,19.3,14.7 M7.1,16.7c-0.3,0.2-0.5,0.3-0.6,0.4c-0.9,0.9-1.5,1.7-1.6,2.3
	C5.5,19.1,6.2,18.3,7.1,16.7 M11.1,7.5L11.1,7.5c0.2-0.5,0.2-0.9,0.3-1.1l0-0.2c0.1-0.8,0.1-1.1-0.1-1.5l-0.2-0.1
	c0,0-0.1,0.1-0.1,0.2C10.8,5.3,10.8,6.3,11.1,7.5z"/>
</svg>
