<?xml version="1.0" encoding="utf-8"?>
<!-- Generator: Adobe Illustrator 20.0.0, SVG Export Plug-In . SVG Version: 6.00 Build 0)  -->
<svg version="1.1" id="Layer_1" xmlns="http://www.w3.org/2000/svg" xmlns:xlink="http://www.w3.org/1999/xlink" x="0px" y="0px"
	 viewBox="0 0 24 24" style="enable-background:new 0 0 24 24;" xml:space="preserve">
<style type="text/css">
	.st0{fill:#5A5A5A;}
</style>
<path class="st0" d="M14.1,8.4H17l3.4,6h-3.5L13.8,9 M19.6,18h-6.7l1.7-3h6.1l0.3,0.6 M11.4,18l-1.3-2.6l3.4-6l1.8,3.2l-3,5.3
	 M21.6,4.8H12L9.6,2.4H2.4C1.1,2.4,0,3.5,0,4.8v14.4c0,1.3,1.1,2.4,2.4,2.4h19.2c1.3,0,2.4-1.1,2.4-2.4v-12
	C24,5.9,22.9,4.8,21.6,4.8z"/>
</svg>
