<?xml version="1.0" encoding="utf-8"?>
<!-- Generator: Adobe Illustrator 20.0.0, SVG Export Plug-In . SVG Version: 6.00 Build 0)  -->
<svg version="1.1" id="Layer_1" xmlns="http://www.w3.org/2000/svg" xmlns:xlink="http://www.w3.org/1999/xlink" x="0px" y="0px"
	 viewBox="0 0 24 24" style="enable-background:new 0 0 24 24;" xml:space="preserve">
<style type="text/css">
	.st0{fill:#FFFFFF;}
</style>
<path class="st0" d="M12,18c1.7,0,3,1.3,3,3s-1.3,3-3,3s-3-1.3-3-3S10.3,18,12,18 M12,9c1.7,0,3,1.3,3,3s-1.3,3-3,3s-3-1.3-3-3
	S10.3,9,12,9 M12,0c1.7,0,3,1.3,3,3s-1.3,3-3,3S9,4.7,9,3S10.3,0,12,0z"/>
</svg>
