<svg x="0" y="0" width="48" height="48" version="1.1" xmlns="http://www.w3.org/2000/svg" xmlns:xlink="http://www.w3.org/1999/xlink"><defs><linearGradient x1="14.24427" y1="16.19542" x2="50.56683" y2="48.61568" gradientUnits="userSpaceOnUse" id="color-1"><stop offset="0" stop-color="#000000" stop-opacity="0.08"></stop><stop offset="1" stop-color="#000000" stop-opacity="0"></stop></linearGradient><filter id="dropshadow"><feColorMatrix type="matrix" values="0 0 0 0 .05  0 0 0 0 .15  0 0 0 0 .1  0 0 0 .8 0"></feColorMatrix> <feOffset dx="0" dy="1"></feOffset> <feGaussianBlur stdDeviation="1"></feGaussianBlur> <feComposite in="SourceGraphic"></feComposite></filter></defs><g fill="none" stroke="none" stroke-width="none" stroke-linecap="butt" stroke-linejoin="miter" stroke-miterlimit="none" stroke-dasharray="" stroke-dashoffset="0" font-family="none" font-weight="normal" font-size="none" text-anchor="start" mix-blend-mode="normal"><g fill="#000000" stroke="none" stroke-width="1" stroke-miterlimit="4" font-family="&quot;Open Sans&quot;, sans-serif" font-size="14"></g><path d="M3,24c0,-11.59798 9.40202,-21 21,-21c11.59798,0 21,9.40202 21,21c0,11.59798 -9.40202,21 -21,21c-11.59798,0 -21,-9.40202 -21,-21z" fill="#00abee" stroke-width="1" stroke-miterlimit="10" font-family="sans-serif" font-size="12" filter="url(#dropshadow)"></path><path d="M14.81558,31.23326c-0.35303,-0.35303 -0.57131,-0.84081 -0.57132,-1.37982c0,0 0,-0.00001 0,-0.00001l0,0c0,0 0.00976,-11.70687 0.00976,-11.70687c0,-1.07801 0.86339,-1.95115 1.94139,-1.95115l5.85344,0c0,0 1.95115,1.95115 1.95115,1.95115l7.80458,0c0.539,0 1.02679,0.21828 1.37982,0.57132l0.00332,0.00332c-0.0011,-0.00111 -0.00221,-0.00221 -0.00331,-0.00332l11.02163,11.02163c-2.12611,7.4996 -8.31489,13.29149 -16.03745,14.84676c0,0 -13.35301,-13.35301 -13.35301,-13.35301z" fill="url(#color-1)" stroke-width="1" stroke-miterlimit="10" font-family="sans-serif" font-size="12"></path><path d="M24,18.14656l7.80458,0c1.07801,0 1.95115,0.87314 1.95115,1.95115l0,9.75573c0,1.07801 -0.87314,1.95115 -1.95115,1.95115l-15.60917,0c-1.07801,0 -1.95115,-0.87314 -1.95115,-1.95115l0.00976,-11.70688c0,-1.07801 0.86338,-1.95115 1.94139,-1.95115l5.85344,0z" fill="#f5f5f5" stroke="none" stroke-width="0" stroke-miterlimit="4" font-family="&quot;Open Sans&quot;, sans-serif" font-size="14"></path></g></svg>